# Blender v2.78 (sub 0) OBJ File: ''
# www.blender.org
mtllib monkey_.mtl
o Suzanne_Suzanne.002
v -0.578125 0.148821 0.529070
v -0.578125 -0.041107 -0.548063
v -0.626154 -0.099857 -0.336596
v -0.626154 0.021288 0.350450
v -0.809088 0.222765 0.207912
v -0.648438 0.080989 0.144380
v -0.648438 0.026724 -0.163373
v -0.663968 0.225936 -0.106945
v -0.664332 0.249199 0.022694
v -0.805121 0.410432 0.228469
v -0.648438 0.457986 0.077905
v -0.648438 0.403721 -0.229847
v -0.617188 0.568840 0.256684
v -0.617188 0.446743 -0.435759
v -0.805224 0.306995 -0.352414
v -0.768140 0.223358 -0.513200
v -0.578125 0.525817 0.462596
v -0.578125 0.335890 -0.614538
v -0.566534 0.348411 0.581705
v -0.566494 0.128388 -0.665670
v -0.768123 0.384819 0.406443
v -0.809604 0.138165 -0.271249
v -0.794655 0.199323 0.382808
v -0.794655 0.056374 -0.427895
v -0.796875 -0.184651 0.032559
v 0.498892 0.885154 -0.345965
v 0.886247 0.447250 0.085489
v 0.421084 -0.323267 0.234265
v -0.537520 -0.141059 0.251409
v -0.573527 -0.975823 -0.190167
v -0.574956 -0.847512 0.511353
v -0.569124 0.015302 0.567063
v -0.631966 0.534603 0.719571
v -0.761608 0.348793 -0.344104
v -0.752781 0.522739 0.219393
v -0.750000 -0.192345 0.033916
v -0.742188 -0.138489 0.024419
v -0.804936 -0.113198 0.107245
v -0.582604 -0.160116 -0.571401
v -0.639416 0.242258 -0.871978
v -0.854577 0.595857 -0.357139
v -0.850654 0.690138 0.135188
v -0.809708 0.365365 -0.068962
v -0.792388 -0.132315 -0.069382
v -0.685507 -0.912284 0.129199
v -0.751561 -0.215662 0.174381
v -0.762465 -0.328021 0.054274
v -0.759088 -0.261279 -0.084162
v -0.704667 -0.744795 0.236793
v -0.703530 -0.804679 0.055908
v -0.752534 0.310918 -0.474167
v -0.681778 0.202098 -0.592095
v -0.683209 0.115184 -0.571848
v -0.718920 0.014606 -0.422968
v -0.760369 0.333888 0.142334
v -0.761091 0.256100 -0.244253
v -0.806824 0.440901 0.251677
v -0.756619 0.169045 0.196525
v -0.697299 0.140121 0.396216
v -0.687762 0.287340 0.493932
v -0.675520 0.394231 0.488411
v -0.753801 0.090998 -0.239019
v -0.632235 0.423940 -0.077283
v -0.702398 0.716868 -0.381451
v -0.701714 0.803962 0.112735
v -0.474708 0.441097 -0.542293
v -0.307327 0.271108 -0.770436
v -0.349172 -0.057672 -0.803232
v -0.507440 -0.255772 -0.196341
v -0.400528 0.243325 0.759133
v -0.190772 0.961993 -0.167846
v 0.779360 -0.076035 0.001609
v 0.455613 0.250124 -0.901649
v -0.341908 -0.441168 -0.139564
v -0.400826 -0.984073 -0.117683
v -0.408725 -0.841003 0.474439
v -0.307091 -0.487738 0.086287
v -0.297475 -0.357497 0.265871
v -0.128827 0.802802 -0.624976
v -0.152219 0.968146 0.302080
v -0.472638 0.599206 0.361681
v -0.312642 0.521916 0.636504
v -0.095848 0.431601 -0.869656
v -0.095848 0.703012 0.669593
v 0.370019 0.815386 0.581220
v 0.345925 0.474744 -0.869769
v 0.470120 -0.224417 -0.378985
v 0.158480 -0.047032 0.556184
v 0.462036 -0.218512 -1.233997
v 0.444733 0.071942 -1.396966
v 0.352791 0.286897 -1.212627
v 0.444590 0.519666 1.138774
v 0.396365 0.187341 1.164740
v 0.124813 0.045169 0.707031
v 0.192084 0.489258 0.788502
v 0.293091 0.147505 0.838909
v 0.437880 -0.151692 -1.137961
v 0.444218 0.101789 -1.247201
v 0.354455 0.126329 -1.020859
v 0.308274 -0.036918 -0.801691
v 0.308961 0.240195 0.760625
v 0.139283 -0.193144 -0.685767
v 0.191879 0.210263 -0.901418
v 0.359371 0.463769 0.918692
v 0.295795 -0.149781 -0.836386
v 0.458032 0.239426 1.118105
v 0.551496 0.269648 -1.289607
v 0.552827 0.686591 1.124866
v 0.431381 0.660932 1.214457
v 0.547001 0.203023 1.208188
v 0.323445 -0.252793 -0.739016
v 0.374711 0.059923 0.696650
v 0.391235 0.491683 0.760012
vn -0.6563 -0.0023 0.7545
vn -0.6570 -0.2576 -0.7085
vn -0.5356 -0.6125 0.5814
vn -0.5356 -0.7744 -0.3368
vn -0.7288 -0.6840 -0.0315
vn -0.7286 -0.6332 0.2611
vn -0.6555 -0.4823 -0.5811
vn -0.7909 0.0831 -0.6063
vn -0.7878 0.2834 0.5469
vn -0.7056 0.4436 0.5525
vn -0.5701 0.8173 0.0842
vn -0.6466 0.7246 0.2387
vn -0.6231 0.5965 -0.5060
vn -0.5408 0.4442 0.7143
vn -0.9964 0.0119 0.0838
vn -0.9961 -0.0159 -0.0868
vn -0.9697 0.1110 0.2176
vn -0.9702 0.0314 -0.2401
vn -0.3048 -0.8652 0.3981
vn -0.4445 -0.8853 -0.1367
vn -0.6474 -0.4288 0.6300
vn -0.5478 0.5650 -0.6170
vn -0.4495 0.4341 -0.7807
vn -0.9742 -0.0506 0.2199
vn -0.9242 -0.3552 -0.1402
vn -0.9239 -0.3552 -0.1422
vn -0.9678 -0.0881 0.2359
vn -0.9457 -0.2693 -0.1818
vn -0.8908 0.0088 0.4544
vn -0.9828 0.1805 -0.0387
vn -0.9997 -0.0235 -0.0023
vn -0.9082 -0.0313 0.4174
vn -0.9162 -0.1852 -0.3552
vn -0.9961 -0.0857 0.0221
vn 0.0000 -0.1736 -0.9848
vn -0.5717 0.7398 0.3547
vn -0.9090 -0.2600 0.3258
vn -0.9802 -0.1679 -0.1049
vn -0.7524 -0.5127 -0.4135
vn -0.7663 0.4673 0.4409
vn -0.8532 -0.2489 0.4583
vn -0.8539 -0.3127 -0.4161
vn 0.7591 0.6373 -0.1326
vn -0.7617 0.2708 -0.5886
vn -0.1784 0.4138 -0.8927
vn -0.1928 0.6842 0.7034
vn 0.4013 0.8534 0.3327
vn 0.0956 0.8305 -0.5487
vn 0.2503 0.3228 0.9128
vn 0.9755 -0.2105 0.0639
vn 0.9782 -0.1132 -0.1741
vn 0.0901 -0.9678 0.2350
vn 0.1898 0.3517 0.9167
vn 0.3826 -0.0786 -0.9206
vn 0.9784 -0.1887 0.0845
vn 0.0642 -0.8095 0.5836
vn 0.2591 -0.9373 -0.2332
vn 0.1339 0.9866 0.0929
vn 0.8432 0.3204 -0.4318
vn 0.7665 0.3483 0.5396
vn -0.0814 0.8023 0.5913
vn -0.0536 0.5462 -0.8359
vn -0.5898 0.6093 0.5300
vn -0.6180 0.3937 -0.6805
vn -0.7707 0.6367 0.0260
vn -0.7212 0.6181 -0.3130
vn 0.8151 0.3713 -0.4446
vn 0.8141 0.5006 0.2943
vn -0.5074 0.4762 0.7182
vn -0.5107 0.1495 -0.8467
vn 0.0357 0.5221 0.8521
vn -0.0126 0.1260 -0.9919
vn 0.1180 0.4860 0.8659
vn 0.0647 -0.7306 0.6797
vn 0.0108 -0.9935 -0.1129
vn -0.0534 -0.6391 0.7673
vn 0.7969 -0.1175 0.5926
vn 0.8804 -0.3387 -0.3320
vn 0.7673 -0.4640 -0.4426
vn -0.8866 -0.4542 0.0875
vn -0.9268 0.1063 -0.3602
vn -0.9773 -0.0627 -0.2022
vn -0.5616 0.8238 0.0773
vn -0.5302 -0.6402 0.5559
vn -0.8750 -0.3749 -0.3063
vn -0.2741 -0.8466 0.4563
vn 0.0279 -0.1845 0.9824
vn -0.1910 -0.4433 -0.8758
vn -0.6962 -0.5252 -0.4893
vn 0.0779 -0.4779 -0.8750
vn -0.6060 -0.3636 0.7075
vn -0.9799 0.1967 0.0343
vn -0.8677 0.0573 0.4938
vn -0.9010 -0.0918 -0.4239
vn -0.9238 -0.0720 0.3760
vn 0.0250 -0.9649 0.2615
vn -0.3325 0.9246 -0.1859
vn -0.1494 0.9887 0.0128
vn 0.9260 -0.0749 -0.3701
vn 0.9553 -0.1457 0.2574
vn 0.5701 0.1328 0.8108
vn 0.8591 -0.2106 -0.4665
vn 0.0719 -0.8438 0.5318
vn -0.5789 -0.1763 0.7961
vn -0.5789 -0.4377 -0.6880
vn -0.6849 -0.7163 -0.1335
vn -0.6833 -0.6286 0.3714
vn -0.6529 -0.2531 0.7139
vn -0.7097 0.2301 -0.6659
vn -0.5694 0.7395 -0.3590
vn -0.6240 0.7327 0.2715
vn -0.6517 0.6009 -0.4629
vn -0.5411 0.1725 -0.8231
vn -0.4199 0.3329 0.8443
vn -0.4075 0.0296 -0.9127
vn -0.6832 -0.1037 0.7228
vn -0.4333 -0.5778 -0.6916
vn -0.5192 0.7574 0.3959
vn -0.4355 0.6687 0.6027
vn -0.8740 -0.3328 0.3542
vn -0.8862 -0.4056 0.2237
vn -0.9587 -0.2225 -0.1770
vn -0.9864 0.1188 0.1137
vn -0.5089 -0.1873 -0.8402
vn -0.9177 -0.1274 -0.3764
vn -0.9713 -0.1769 -0.1591
vn -0.9381 -0.2993 0.1745
vn -0.9700 -0.0504 -0.2376
vn -0.9004 -0.3034 0.3119
vn -0.9106 -0.3258 -0.2544
vn -0.9890 -0.1226 -0.0832
vn -0.9724 -0.1196 0.2001
vn -0.5659 0.5644 -0.6010
vn 0.9969 0.0433 0.0661
vn -0.9685 -0.2452 -0.0423
vn -0.4201 0.3340 0.8438
vn -0.4071 -0.0005 -0.9134
vn -0.9895 -0.1387 0.0397
vn -0.7826 -0.6055 0.1448
vn -0.7146 -0.6836 0.1484
vn -0.6375 0.6078 0.4734
vn 0.0952 0.9714 0.2177
vn 0.3972 0.6845 -0.6113
vn 0.2872 0.0588 -0.9561
vn 0.1472 -0.9510 -0.2720
vn -0.1123 -0.9814 0.1559
vn -0.0823 -0.9784 0.1896
vn 0.2373 0.3244 0.9157
vn 0.2892 -0.0347 -0.9566
vn 0.5243 -0.7410 0.4196
vn 0.6878 -0.5235 0.5028
vn 0.5230 -0.8470 -0.0947
vn 0.2171 -0.9663 -0.1384
vn 0.8146 -0.2503 0.5232
vn 0.9182 -0.1274 -0.3751
vn 0.2987 0.9536 -0.0370
vn 0.0210 0.9450 -0.3263
vn 0.6642 0.7328 0.1475
vn 0.7195 0.4289 -0.5462
vn 0.1862 0.7463 -0.6391
vn -0.6012 0.6063 0.5205
vn -0.5792 0.3902 -0.7157
vn -0.7497 0.6597 0.0529
vn -0.7700 0.5916 -0.2390
vn -0.1691 0.2953 0.9403
vn -0.1516 -0.0555 -0.9869
vn -0.0206 0.1306 -0.9912
vn -0.1545 -0.4128 -0.8976
vn -0.1726 -0.9222 -0.3460
vn -0.5596 -0.5811 0.5909
vn -0.2559 -0.9500 0.1791
vn -0.0316 -0.7711 0.6359
vn -0.9984 -0.0552 0.0076
vn -0.6004 0.7943 0.0932
vn -0.7797 0.4048 -0.4777
vn -0.6180 0.0283 -0.7856
vn -0.8614 -0.3001 0.4098
vn -0.6991 0.5274 0.4828
vn -0.7049 0.2785 -0.6523
vn -0.1129 -0.1627 0.9802
vn -0.3080 -0.7308 -0.6092
vn -0.4490 0.8668 -0.2170
vn -0.9847 0.1405 -0.1028
vn -0.9265 -0.1291 -0.3534
vn 0.0677 -0.9635 0.2591
vn -0.3459 -0.9244 -0.1609
vn -0.2684 -0.0809 0.9599
vn -0.2552 0.5642 -0.7852
vn 0.2093 0.9188 0.3345
vn -0.0744 0.8929 -0.4440
vn 0.9467 0.0110 -0.3219
vn 0.9573 -0.1780 0.2276
usemtl None
s off
f 21//1 23//1 19//1
f 24//2 16//2 20//2
f 23//3 4//3 1//3
f 3//4 24//4 2//4
f 23//5 5//5 4//5
f 22//6 24//6 3//6
f 9//7 6//7 5//7
f 5//8 10//8 9//8
f 15//9 22//9 8//9
f 15//10 8//10 12//10
f 15//11 12//11 14//11
f 21//12 13//12 10//12
f 16//13 14//13 18//13
f 19//14 17//14 21//14
f 23//15 10//15 5//15
f 22//16 15//16 24//16
f 23//17 21//17 10//17
f 15//18 16//18 24//18
f 29//19 32//19 38//19
f 39//20 69//20 44//20
f 33//21 60//21 70//21
f 41//22 64//22 40//22
f 43//23 42//23 65//23
f 35//24 43//24 55//24
f 34//25 43//25 41//25
f 40//26 34//26 41//26
f 33//27 35//27 61//27
f 39//28 52//28 40//28
f 38//29 32//29 58//29
f 58//30 62//30 38//30
f 55//31 62//31 58//31
f 46//32 49//32 31//32
f 50//33 48//33 30//33
f 46//34 50//34 49//34
f 25//35 37//35 36//35
f 25//36 37//36 44//36
f 38//37 47//37 46//37
f 47//38 38//38 48//38
f 37//39 38//39 62//39
f 44//40 37//40 62//40
f 32//41 60//41 59//41
f 53//42 39//42 54//42
f 34//43 52//43 51//43
f 55//44 57//44 35//44
f 43//45 65//45 63//45
f 64//46 43//46 63//46
f 33//47 81//47 65//47
f 40//48 66//48 67//48
f 70//49 82//49 33//49
f 77//50 76//50 75//50
f 77//51 75//51 74//51
f 31//52 75//52 76//52
f 31//53 76//53 78//53
f 75//54 30//54 74//54
f 76//55 77//55 78//55
f 28//56 78//56 77//56
f 74//57 28//57 77//57
f 71//58 85//58 26//58
f 73//59 26//59 27//59
f 27//60 85//60 113//60
f 80//61 84//61 85//61
f 83//62 79//62 86//62
f 80//63 82//63 84//63
f 67//64 79//64 83//64
f 81//65 71//65 63//65
f 66//66 71//66 79//66
f 63//67 65//67 81//67
f 64//68 63//68 66//68
f 70//69 84//69 82//69
f 83//70 68//70 67//70
f 95//71 85//71 84//71
f 86//72 103//72 83//72
f 85//73 95//73 113//73
f 28//74 88//74 78//74
f 69//75 102//75 87//75
f 70//76 78//76 88//76
f 112//77 27//77 113//77
f 111//78 73//78 87//78
f 73//79 72//79 87//79
f 91//80 90//80 98//80
f 92//81 93//81 109//81
f 98//82 89//82 97//82
f 93//83 96//83 94//83
f 104//84 109//84 95//84
f 99//85 91//85 98//85
f 88//86 94//86 70//86
f 70//87 94//87 95//87
f 103//88 100//88 102//88
f 103//89 91//89 100//89
f 68//90 103//90 102//90
f 101//91 104//91 95//91
f 96//92 104//92 101//92
f 106//93 104//93 96//93
f 99//94 97//94 105//94
f 104//95 106//95 92//95
f 93//96 112//96 110//96
f 109//97 108//97 95//97
f 103//98 73//98 107//98
f 110//99 113//99 108//99
f 89//100 107//100 111//100
f 108//101 109//101 110//101
f 89//102 90//102 107//102
f 88//103 112//103 94//103
f 19//104 23//104 1//104
f 2//105 24//105 20//105
f 4//106 5//106 6//106
f 7//107 22//107 3//107
f 8//108 22//108 7//108
f 10//109 11//109 9//109
f 10//110 13//110 11//110
f 21//111 17//111 13//111
f 16//112 15//112 14//112
f 20//113 16//113 18//113
f 29//114 46//114 31//114
f 30//115 48//115 69//115
f 32//116 70//116 60//116
f 40//117 68//117 39//117
f 65//118 42//118 33//118
f 43//119 64//119 41//119
f 35//120 42//120 43//120
f 33//121 42//121 35//121
f 40//122 52//122 34//122
f 60//123 33//123 61//123
f 39//124 53//124 52//124
f 44//125 62//125 39//125
f 43//126 34//126 56//126
f 55//127 43//127 62//127
f 62//128 43//128 56//128
f 49//129 45//129 31//129
f 45//130 50//130 30//130
f 50//131 47//131 48//131
f 46//132 47//132 50//132
f 25//133 38//133 37//133
f 44//134 38//134 25//134
f 48//135 38//135 44//135
f 29//136 38//136 46//136
f 48//137 44//137 69//137
f 45//138 49//138 50//138
f 58//139 32//139 59//139
f 54//140 39//140 62//140
f 35//141 57//141 61//141
f 33//142 82//142 81//142
f 40//143 64//143 66//143
f 68//144 40//144 67//144
f 69//145 39//145 68//145
f 75//146 45//146 30//146
f 31//147 45//147 75//147
f 29//148 31//148 78//148
f 74//149 30//149 69//149
f 29//150 70//150 32//150
f 112//151 28//151 72//151
f 87//152 72//152 28//152
f 74//153 87//153 28//153
f 27//154 112//154 72//154
f 73//155 27//155 72//155
f 71//156 80//156 85//156
f 26//157 79//157 71//157
f 26//158 85//158 27//158
f 86//159 26//159 73//159
f 86//160 79//160 26//160
f 80//161 81//161 82//161
f 67//162 66//162 79//162
f 81//163 80//163 71//163
f 66//164 63//164 71//164
f 70//165 95//165 84//165
f 83//166 103//166 68//166
f 86//167 73//167 103//167
f 87//168 74//168 69//168
f 69//169 68//169 102//169
f 70//170 29//170 78//170
f 87//171 102//171 111//171
f 28//172 112//172 88//172
f 98//173 90//173 89//173
f 93//174 106//174 96//174
f 102//175 97//175 89//175
f 92//176 106//176 93//176
f 104//177 92//177 109//177
f 101//178 94//178 96//178
f 105//179 102//179 100//179
f 95//180 94//180 101//180
f 100//181 91//181 99//181
f 97//182 102//182 105//182
f 105//183 100//183 99//183
f 99//184 98//184 97//184
f 93//185 94//185 112//185
f 111//186 102//186 89//186
f 93//187 110//187 109//187
f 90//188 91//188 107//188
f 91//189 103//189 107//189
f 95//190 108//190 113//190
f 110//191 112//191 113//191
f 111//192 107//192 73//192
