# Blender v2.78 (sub 0) OBJ File: ''
# www.blender.org
mtllib torus_new.mtl
o Torus.005
v 1.190452 0.182700 0.093294
v 0.822333 0.181031 -0.115005
v 0.775494 -0.077545 0.019870
v 0.902886 -0.215697 0.016964
v 1.068363 -0.248506 0.143091
v 1.202456 -0.072631 -0.368839
v 1.058298 -0.216397 -0.440714
v 1.105527 0.119879 -0.545185
v 1.010470 0.249518 -0.363368
v 0.686844 -0.123504 -0.402292
v 0.940284 -0.058209 -0.845301
v 0.543149 0.248484 -0.797921
v 0.552873 0.066917 -0.524628
v 0.549194 -0.250506 -0.807981
v 0.718884 0.195029 -0.934325
v 0.457380 -0.194089 -1.099200
v 0.240284 -0.061042 -0.725309
v 0.414784 0.067652 -1.185975
v 0.105242 0.186862 -0.827585
v 0.002728 0.190231 -1.184086
v -0.001136 -0.071444 -1.252135
v -0.108397 -0.180561 -0.823358
v -0.409450 0.248526 -0.997007
v -0.158639 0.067997 -0.741681
v -0.201870 -0.251560 -1.044300
v -0.479624 0.070960 -1.168370
v -0.712527 -0.074248 -1.050312
v -0.571516 0.177382 -0.617151
v -0.540995 -0.066285 -0.539382
v -0.984496 -0.194410 -0.683767
v -1.064343 0.151377 -0.634911
v -0.864021 -0.249279 -0.406988
v -1.026344 0.249376 -0.337026
v -0.908194 0.213319 -0.044474
v -0.727826 -0.066632 -0.203150
v -1.273859 0.051826 0.130745
v -0.754974 0.060567 0.170973
v -1.182862 0.191114 0.016479
v -1.177308 -0.195688 -0.038082
v -0.816856 -0.182086 0.098190
v -1.139503 -0.126527 0.471998
v -0.880750 0.248030 0.620745
v -0.630423 -0.180318 0.548714
v -0.929924 -0.248471 0.545743
v -0.982767 0.066860 0.781701
v -0.577472 0.214549 0.682590
v -0.458323 0.066026 0.607963
v -0.718697 -0.187005 0.943599
v -0.608814 0.066859 1.098286
v -0.435056 0.249200 0.992536
v -0.187982 -0.183349 0.808135
v 0.408017 -0.240765 1.061161
v -0.168183 -0.067935 1.254405
v 0.017091 0.123129 1.236907
v -0.106249 0.181526 0.820123
v 0.168919 0.000000 0.764660
v 0.050201 -0.192828 1.184222
v 0.198587 0.248398 1.063560
v 0.363151 0.180437 0.749464
v 0.292311 -0.176968 0.771852
v 0.493871 0.133066 1.140402
v 0.605613 -0.185582 0.571025
v 0.950110 -0.060356 0.833224
v 0.978513 0.126527 0.750840
v 0.903657 0.248935 0.584964
v 0.691964 -0.003869 0.331824
v 0.864061 -0.248852 0.634705
v 0.744513 0.182868 0.370544
v 1.235635 -0.073539 0.245784
vn 0.9883 0.1427 -0.0531
vn 0.7364 -0.6748 -0.0498
vn 0.9323 0.3264 -0.1561
vn -0.7144 -0.6635 0.2223
vn 0.8761 -0.0005 -0.4821
vn -0.8190 0.3749 0.4343
vn -0.8593 -0.4567 0.2302
vn -0.8754 -0.2891 0.3875
vn -0.3188 -0.9313 0.1760
vn 0.1072 -0.9926 -0.0564
vn 0.7370 -0.5283 -0.4215
vn -0.4012 -0.8265 0.3949
vn -0.5521 0.0428 0.8327
vn 0.2171 0.7398 -0.6369
vn 0.0861 0.9603 -0.2654
vn -0.0730 -0.4965 0.8650
vn 0.0700 0.2501 -0.9657
vn 0.1009 0.4259 0.8991
vn -0.1467 -0.3354 0.9306
vn -0.1072 -0.9325 0.3450
vn 0.0499 0.9776 0.2044
vn 0.2964 0.0319 0.9545
vn -0.2567 -0.3276 -0.9093
vn 0.5077 -0.1746 0.8437
vn -0.2824 -0.8297 -0.4815
vn -0.4181 0.7109 -0.5655
vn -0.2841 0.9209 -0.2667
vn 0.7635 0.4924 0.4180
vn -0.7844 -0.0945 -0.6130
vn 0.4959 0.8348 0.2392
vn -0.6458 0.7459 -0.1630
vn -0.9432 -0.1756 -0.2820
vn 0.7987 -0.6017 0.0055
vn 0.4346 0.8983 -0.0648
vn -0.5365 -0.8300 0.1523
vn 0.1210 0.9910 -0.0567
vn 0.7581 -0.4071 -0.5095
vn -0.5622 -0.7185 0.4095
vn -0.7168 -0.3678 0.5924
vn -0.4445 0.7217 0.5306
vn -0.4050 -0.3415 0.8482
vn -0.0664 -0.9798 0.1885
vn -0.2089 -0.7306 0.6500
vn -0.0598 0.8377 0.5428
vn 0.0355 0.9514 -0.3058
vn -0.1482 0.0765 -0.9860
vn -0.0738 -0.0918 -0.9930
vn 0.1994 -0.1041 0.9744
vn -0.0320 0.9733 -0.2273
vn 0.1181 0.7420 0.6599
vn 0.2826 -0.2606 0.9232
vn -0.1590 -0.9756 -0.1515
vn 0.4503 -0.2829 0.8469
vn 0.2520 0.8933 0.3723
vn -0.3870 0.8382 -0.3841
vn -0.5057 -0.3840 -0.7725
vn -0.6672 0.3266 -0.6694
vn -0.9566 0.0896 -0.2773
vn -0.2158 -0.9723 -0.0903
vn 0.6678 -0.6624 0.3395
vn 0.8850 0.3433 0.3146
vn 0.6220 0.7374 0.2635
vn -0.3394 0.9399 -0.0377
vn -0.9427 0.2968 -0.1522
vn -0.4228 0.9034 -0.0712
vn 0.7154 -0.6976 -0.0397
vn 0.6749 0.7202 -0.1606
vn -0.1482 0.9764 0.1570
vn -0.7761 0.5122 0.3679
vn 0.4851 0.8118 -0.3252
vn 0.6900 0.3887 -0.6106
vn 0.1601 0.9716 -0.1745
vn 0.2497 -0.9329 -0.2594
vn 0.4487 -0.7802 -0.4359
vn -0.5707 0.1203 0.8123
vn 0.5671 0.2164 -0.7948
vn 0.4993 -0.1984 -0.8434
vn -0.1528 0.8206 0.5506
vn 0.2388 -0.2704 -0.9327
vn 0.0436 0.9771 -0.2084
vn -0.1459 0.7007 0.6983
vn 0.0675 -0.9753 -0.2102
vn 0.0124 -0.7616 -0.6480
vn -0.0937 0.2519 -0.9632
vn -0.1997 0.7202 -0.6644
vn -0.2098 -0.6295 -0.7481
vn 0.3509 0.3243 0.8785
vn -0.0394 -0.9463 0.3208
vn -0.5951 0.3779 -0.7093
vn -0.1344 -0.9815 -0.1361
vn 0.5671 -0.5733 0.5913
vn 0.0923 0.9921 0.0850
vn 0.8449 0.2558 0.4698
vn 0.5618 -0.7664 0.3114
vn 0.9359 -0.3071 0.1723
vn -0.2575 -0.9630 -0.0788
vn -0.9430 -0.1780 -0.2812
vn -0.8856 0.4251 -0.1871
vn 0.9422 -0.2904 0.1671
vn 0.6303 -0.7751 0.0443
vn -0.1820 -0.9832 -0.0118
vn -0.8925 -0.4334 0.1249
vn -0.2647 0.9634 0.0416
vn -0.6836 0.6748 0.2782
vn 0.9175 -0.1202 -0.3792
vn 0.2219 -0.9711 -0.0880
vn -0.6956 0.6546 0.2959
vn 0.8647 0.3118 -0.3938
vn -0.9100 0.0891 0.4049
vn 0.5972 0.6871 -0.4140
vn 0.1432 0.9742 -0.1747
vn -0.4438 0.7269 0.5242
vn -0.6353 -0.1823 0.7504
vn 0.2098 -0.9057 -0.3683
vn 0.2635 0.5935 -0.7605
vn 0.4998 -0.1438 -0.8541
vn 0.3400 -0.3379 -0.8776
vn -0.0662 -0.9802 0.1866
vn -0.2321 0.3095 0.9222
vn -0.2207 0.6381 0.7376
vn 0.1162 0.9798 -0.1629
vn 0.2518 0.6110 -0.7505
vn 0.1580 -0.5083 -0.8466
vn -0.0032 -0.9768 -0.2141
vn 0.2156 -0.1640 0.9626
vn -0.1764 -0.9561 -0.2341
vn 0.6101 0.2401 0.7550
vn 0.3651 0.8202 0.4405
vn -0.1355 0.9707 -0.1985
vn -0.5400 0.5259 -0.6572
vn -0.5233 -0.5769 -0.6272
vn 0.4556 -0.7357 0.5011
vn 0.8985 0.0554 0.4355
vn -0.6953 -0.6340 -0.3386
vn -0.1676 -0.9852 -0.0364
vn 0.6189 -0.7423 0.2567
vn 0.2762 0.9606 0.0317
vn -0.9632 0.0356 -0.2663
usemtl None
s off
f 6//1 1//1 69//1
f 7//2 69//2 5//2
f 6//3 8//3 1//3
f 10//4 4//4 3//4
f 11//5 8//5 6//5
f 2//6 13//6 3//6
f 13//7 10//7 3//7
f 10//8 14//8 4//8
f 14//9 5//9 4//9
f 14//10 7//10 5//10
f 7//11 11//11 6//11
f 17//12 14//12 10//12
f 19//13 17//13 13//13
f 18//14 20//14 15//14
f 20//15 12//15 15//15
f 22//16 14//16 17//16
f 21//17 20//17 18//17
f 24//18 17//18 19//18
f 24//19 22//19 17//19
f 22//20 25//20 14//20
f 23//21 28//21 19//21
f 28//22 24//22 19//22
f 27//23 26//23 21//23
f 24//24 29//24 22//24
f 30//25 27//25 25//25
f 26//26 31//26 23//26
f 31//27 33//27 23//27
f 23//28 34//28 28//28
f 30//29 31//29 27//29
f 34//30 37//30 28//30
f 38//31 33//31 31//31
f 39//32 36//32 30//32
f 35//33 40//33 32//33
f 42//34 34//34 33//34
f 44//35 41//35 39//35
f 42//36 46//36 34//36
f 47//37 43//37 37//37
f 44//38 48//38 41//38
f 48//39 45//39 41//39
f 45//40 50//40 42//40
f 53//41 49//41 48//41
f 52//42 57//42 48//42
f 57//43 53//43 48//43
f 54//44 58//44 50//44
f 58//45 55//45 50//45
f 59//46 56//46 55//46
f 56//47 60//47 51//47
f 61//48 54//48 53//48
f 58//49 59//49 55//49
f 61//50 58//50 54//50
f 52//51 61//51 57//51
f 60//52 67//52 52//52
f 52//53 63//53 61//53
f 65//54 58//54 61//54
f 58//55 68//55 59//55
f 56//56 62//56 60//56
f 68//57 66//57 59//57
f 66//58 3//58 62//58
f 62//59 5//59 67//59
f 67//60 69//60 63//60
f 69//61 1//61 64//61
f 1//62 65//62 64//62
f 9//63 68//63 65//63
f 2//64 66//64 68//64
f 9//65 2//65 68//65
f 7//66 6//66 69//66
f 1//67 8//67 9//67
f 9//68 12//68 2//68
f 12//69 13//69 2//69
f 8//70 15//70 9//70
f 11//71 15//71 8//71
f 15//72 12//72 9//72
f 14//73 16//73 7//73
f 7//74 16//74 11//74
f 13//75 17//75 10//75
f 11//76 18//76 15//76
f 16//77 18//77 11//77
f 12//78 19//78 13//78
f 16//79 21//79 18//79
f 20//80 23//80 12//80
f 12//81 23//81 19//81
f 14//82 25//82 16//82
f 16//83 25//83 21//83
f 21//84 26//84 20//84
f 20//85 26//85 23//85
f 25//86 27//86 21//86
f 28//87 29//87 24//87
f 29//88 25//88 22//88
f 27//89 31//89 26//89
f 25//90 32//90 30//90
f 29//91 32//91 25//91
f 23//92 33//92 34//92
f 28//93 35//93 29//93
f 29//94 35//94 32//94
f 28//95 37//95 35//95
f 32//96 39//96 30//96
f 30//97 36//97 31//97
f 36//98 38//98 31//98
f 37//99 40//99 35//99
f 32//100 40//100 44//100
f 32//101 44//101 39//101
f 39//102 41//102 36//102
f 38//103 42//103 33//103
f 36//104 42//104 38//104
f 37//105 43//105 40//105
f 40//106 43//106 44//106
f 36//107 45//107 42//107
f 34//108 46//108 37//108
f 41//109 45//109 36//109
f 46//110 47//110 37//110
f 42//111 50//111 46//111
f 45//112 49//112 50//112
f 48//113 49//113 45//113
f 43//114 51//114 44//114
f 46//115 55//115 47//115
f 47//116 51//116 43//116
f 51//117 52//117 44//117
f 44//118 52//118 48//118
f 53//119 54//119 49//119
f 49//120 54//120 50//120
f 50//121 55//121 46//121
f 55//122 56//122 47//122
f 47//123 56//123 51//123
f 51//124 60//124 52//124
f 57//125 61//125 53//125
f 60//126 62//126 67//126
f 63//127 64//127 61//127
f 64//128 65//128 61//128
f 58//129 65//129 68//129
f 59//130 66//130 56//130
f 56//131 66//131 62//131
f 52//132 67//132 63//132
f 63//133 69//133 64//133
f 62//134 3//134 4//134
f 62//135 4//135 5//135
f 67//136 5//136 69//136
f 1//137 9//137 65//137
f 2//138 3//138 66//138
